<svg width="550" height="239" fill="none" xmlns="http://www.w3.org/2000/svg"><path d="M549.5 119.5c0 16.333-7.615 31.933-21.469 46.166-13.856 14.236-33.931 27.078-58.776 37.875C419.566 225.133 350.887 238.5 275 238.5s-144.566-13.367-194.255-34.959c-24.845-10.797-44.92-23.639-58.776-37.875C8.115 151.433.5 135.833.5 119.5s7.615-31.933 21.47-46.166C35.824 59.098 55.9 46.256 80.744 35.459 130.434 13.867 199.113.5 275 .5s144.566 13.367 194.255 34.96c24.845 10.796 44.92 23.638 58.776 37.874C541.885 87.567 549.5 103.167 549.5 119.5z" stroke="#426930"/></svg>