<svg width="55" height="15" fill="none" xmlns="http://www.w3.org/2000/svg"><path d="M20.497 3.068h-3.034c-.1 0-.197.036-.274.103a.435.435 0 00-.142.261l-1.227 7.972a.266.266 0 00.058.208.252.252 0 00.192.09h1.448c.1 0 .198-.036.274-.103a.435.435 0 00.143-.261l.33-2.15a.434.434 0 01.143-.261.416.416 0 01.274-.104h.96c1.998 0 3.151-.991 3.453-2.955.135-.859.005-1.534-.387-2.006-.431-.52-1.196-.794-2.211-.794zm.35 2.911c-.166 1.116-.998 1.116-1.802 1.116h-.458l.321-2.083a.261.261 0 01.086-.157.25.25 0 01.164-.062h.21c.548 0 1.064 0 1.331.32.16.19.208.474.148.866zm8.717-.036h-1.453a.25.25 0 00-.164.062.26.26 0 00-.085.157l-.064.416-.102-.15c-.315-.468-1.016-.625-1.716-.625-1.605 0-2.976 1.246-3.243 2.994-.139.872.059 1.705.541 2.287.443.534 1.076.757 1.83.757 1.293 0 2.01-.852 2.01-.852l-.064.413a.264.264 0 00.057.21.255.255 0 00.192.09h1.308c.1 0 .198-.036.274-.103a.435.435 0 00.143-.262l.785-5.095a.263.263 0 00-.143-.275.247.247 0 00-.106-.024zM27.54 8.841c-.14.85-.799 1.421-1.639 1.421-.421 0-.758-.139-.975-.401-.215-.261-.296-.633-.228-1.046.13-.843.8-1.433 1.628-1.433.412 0 .748.14.969.405.221.268.309.642.245 1.054zm9.76-2.898h-1.46a.415.415 0 00-.348.19l-2.014 3.039-.853-2.92a.434.434 0 00-.152-.223.416.416 0 00-.252-.086h-1.435a.248.248 0 00-.206.108.264.264 0 00-.034.235l1.608 4.835-1.512 2.187a.263.263 0 00.075.372c.04.024.085.037.132.037h1.458a.413.413 0 00.346-.185l4.855-7.182a.263.263 0 00-.077-.37.248.248 0 00-.13-.037z" fill="#253B80"/><path d="M42.133 3.068H39.1a.42.42 0 00-.274.103.434.434 0 00-.142.261l-1.227 7.972a.265.265 0 00.057.208.254.254 0 00.192.09h1.557a.29.29 0 00.191-.072.304.304 0 00.1-.183l.348-2.26a.434.434 0 01.142-.26.415.415 0 01.274-.104h.96c1.998 0 3.151-.991 3.453-2.955.136-.859.005-1.534-.387-2.007-.431-.519-1.195-.793-2.21-.793zm.35 2.911c-.165 1.116-.997 1.116-1.801 1.116h-.458l.322-2.084a.26.26 0 01.085-.156.248.248 0 01.164-.062h.21c.547 0 1.065 0 1.332.32.159.19.207.474.146.866zm8.718-.036h-1.452a.248.248 0 00-.164.062.26.26 0 00-.086.157l-.064.416-.102-.15c-.314-.468-1.015-.625-1.715-.625-1.605 0-2.976 1.246-3.243 2.994-.138.872.058 1.705.54 2.287.444.534 1.077.757 1.83.757 1.294 0 2.011-.852 2.011-.852l-.065.413a.265.265 0 00.058.21.255.255 0 00.192.09h1.308a.418.418 0 00.274-.103.434.434 0 00.143-.262l.785-5.095a.264.264 0 00-.145-.275.248.248 0 00-.105-.024zm-2.025 2.898c-.14.85-.8 1.42-1.64 1.42-.42 0-.758-.138-.975-.4-.214-.261-.295-.633-.227-1.046.131-.844.8-1.433 1.627-1.433.413 0 .748.14.969.405.222.268.31.642.246 1.054zm3.737-5.555l-1.245 8.118a.265.265 0 00.057.208.254.254 0 00.192.09h1.252a.424.424 0 00.417-.364l1.227-7.971a.265.265 0 00-.057-.209.253.253 0 00-.192-.09h-1.402a.25.25 0 00-.164.062.261.261 0 00-.085.156z" fill="#179BD7"/><path d="M3.223 13.252l.232-1.51-.517-.013H.47L2.185.587A.145.145 0 012.233.5a.138.138 0 01.091-.035h4.161c1.381 0 2.334.295 2.832.876.233.273.382.558.454.872.075.329.077.722.003 1.201l-.005.035v.308l.233.135c.178.093.338.218.472.37.2.232.329.529.383.88.057.362.038.792-.054 1.278-.107.56-.279 1.048-.511 1.447-.205.358-.48.667-.81.91a3.246 3.246 0 01-1.09.503c-.402.108-.86.162-1.362.162h-.324a.968.968 0 00-.633.238 1.011 1.011 0 00-.33.604l-.024.136-.41 2.661-.019.098c-.005.03-.013.046-.026.057a.068.068 0 01-.042.016h-2z" fill="#253B80"/><path d="M10.223 3.485a7.747 7.747 0 01-.043.25c-.548 2.887-2.425 3.884-4.823 3.884h-1.22a.597.597 0 00-.586.514l-.625 4.062-.177 1.152a.327.327 0 00.07.258.313.313 0 00.238.112h2.165a.525.525 0 00.514-.45l.022-.113.407-2.651.027-.145a.525.525 0 01.514-.451h.324c2.097 0 3.74-.873 4.22-3.399.2-1.054.096-1.935-.434-2.555a2.076 2.076 0 00-.593-.468z" fill="#179BD7"/><path d="M9.649 3.25a4.239 4.239 0 00-.534-.12 6.619 6.619 0 00-1.076-.081H4.78a.512.512 0 00-.34.128.536.536 0 00-.175.323L3.57 8.003l-.02.131a.611.611 0 01.2-.368.584.584 0 01.386-.147h1.221c2.397 0 4.275-.997 4.823-3.884.017-.085.03-.168.043-.25a2.884 2.884 0 00-.574-.234z" fill="#222D65"/><path d="M4.264 3.5a.535.535 0 01.176-.323.511.511 0 01.338-.128H8.04c.387 0 .747.026 1.076.08.223.036.443.09.657.161.162.055.313.12.451.195.163-1.067-.001-1.793-.564-2.45C9.04.31 7.92 0 6.486 0H2.325a.6.6 0 00-.588.515L.004 11.772a.375.375 0 00.082.295.36.36 0 00.271.128h2.569l.645-4.193.693-4.502z" fill="#253B80"/></svg>