<svg width="550" height="239" viewBox="0 0 550 239" fill="none" xmlns="http://www.w3.org/2000/svg">
<path d="M549.5 119.5C549.5 135.833 541.885 151.433 528.031 165.666C514.175 179.902 494.1 192.744 469.255 203.541C419.566 225.133 350.887 238.5 275 238.5C199.113 238.5 130.434 225.133 80.7449 203.541C55.8998 192.744 35.8253 179.902 21.9692 165.666C8.11528 151.433 0.5 135.833 0.5 119.5C0.5 103.167 8.11528 87.5672 21.9692 73.334C35.8253 59.0984 55.8998 46.2556 80.7449 35.4593C130.434 13.8673 199.113 0.5 275 0.5C350.887 0.5 419.566 13.8673 469.255 35.4593C494.1 46.2556 514.175 59.0984 528.031 73.334C541.885 87.5672 549.5 103.167 549.5 119.5Z" stroke="#426930"/>
</svg>
