<svg width="55" height="15" viewBox="0 0 55 15" fill="none" xmlns="http://www.w3.org/2000/svg">
<path d="M20.4967 3.06787H17.4633C17.3629 3.06781 17.2657 3.1045 17.1893 3.17134C17.113 3.23817 17.0624 3.33076 17.0468 3.43242L15.8199 11.4038C15.8143 11.4408 15.8165 11.4786 15.8265 11.5146C15.8365 11.5506 15.854 11.584 15.8778 11.6124C15.9015 11.6408 15.931 11.6636 15.9642 11.6792C15.9974 11.6949 16.0336 11.7029 16.0701 11.7029H17.5183C17.6188 11.7029 17.716 11.6662 17.7923 11.5992C17.8687 11.5323 17.9192 11.4396 17.9348 11.3379L18.2657 9.18787C18.2812 9.08621 18.3316 8.99358 18.4079 8.92666C18.4842 8.85974 18.5813 8.82293 18.6817 8.82287H19.642C21.6402 8.82287 22.7934 7.83196 23.0946 5.86833C23.2303 5.00923 23.1003 4.33423 22.7078 3.86151C22.2767 3.34242 21.512 3.06787 20.4967 3.06787ZM20.8467 5.97923C20.6808 7.09469 19.8491 7.09469 19.045 7.09469H18.5872L18.9084 5.01151C18.9178 4.95056 18.9481 4.89505 18.9938 4.85497C19.0396 4.81489 19.0979 4.79287 19.1581 4.79287H19.3679C19.9157 4.79287 20.4324 4.79287 20.6994 5.11287C20.8586 5.30378 20.9074 5.58742 20.8467 5.97923ZM29.5642 5.94333H28.1115C28.0513 5.94333 27.9931 5.96535 27.9473 6.00543C27.9015 6.04551 27.8712 6.10102 27.8618 6.16196L27.7975 6.57833L27.6959 6.42742C27.3815 5.95969 26.6802 5.80333 25.9803 5.80333C24.3751 5.80333 23.0041 7.04924 22.7371 8.79696C22.5982 9.66878 22.7956 10.5024 23.2782 11.0838C23.7209 11.6183 24.3542 11.8411 25.1078 11.8411C26.4012 11.8411 27.1184 10.9888 27.1184 10.9888L27.0537 11.4024C27.0479 11.4394 27.05 11.4772 27.0599 11.5133C27.0698 11.5493 27.0871 11.5828 27.1108 11.6113C27.1345 11.6398 27.164 11.6627 27.1971 11.6785C27.2303 11.6942 27.2664 11.7024 27.3029 11.7024H28.6114C28.7119 11.7025 28.8091 11.6657 28.8855 11.5988C28.9618 11.5318 29.0124 11.4392 29.0279 11.3374L29.813 6.24242C29.8188 6.20552 29.8167 6.16777 29.8068 6.13179C29.797 6.0958 29.7796 6.06244 29.756 6.034C29.7323 6.00556 29.7029 5.98273 29.6698 5.96707C29.6367 5.95142 29.6006 5.94331 29.5642 5.94333ZM27.5394 8.8406C27.3992 9.69105 26.7405 10.262 25.9005 10.262C25.4786 10.262 25.1415 10.1233 24.9251 9.8606C24.7104 9.59969 24.6288 9.22833 24.6971 8.81469C24.8279 7.97151 25.4977 7.38196 26.3249 7.38196C26.7374 7.38196 27.0727 7.52242 27.2936 7.78742C27.515 8.05514 27.6028 8.42878 27.5394 8.8406ZM37.3005 5.94333H35.8408C35.772 5.94344 35.7042 5.96076 35.6434 5.99379C35.5825 6.02682 35.5305 6.07456 35.4917 6.13287L33.4785 9.17196L32.6251 6.25151C32.5989 6.16243 32.5454 6.08437 32.4726 6.02887C32.3997 5.97336 32.3113 5.94337 32.2206 5.94333H30.7861C30.7459 5.94322 30.7062 5.95296 30.6703 5.97176C30.6345 5.99055 30.6035 6.01785 30.58 6.05137C30.5566 6.0849 30.5413 6.12369 30.5354 6.16451C30.5295 6.20533 30.5332 6.247 30.5462 6.28605L32.154 11.1215L30.6424 13.3083C30.6156 13.3471 30.5996 13.3927 30.5964 13.4401C30.5931 13.4876 30.6027 13.535 30.624 13.5773C30.6453 13.6195 30.6775 13.6549 30.7171 13.6796C30.7568 13.7044 30.8023 13.7174 30.8487 13.7174H32.3066C32.3747 13.7175 32.4418 13.7007 32.5021 13.6684C32.5624 13.6361 32.6142 13.5893 32.653 13.532L37.5081 6.35014C37.5344 6.31129 37.5499 6.26579 37.5527 6.21859C37.5556 6.17138 37.5458 6.12427 37.5245 6.08236C37.5031 6.04045 37.4709 6.00533 37.4314 5.98082C37.3919 5.95632 37.3467 5.94335 37.3005 5.94333Z" fill="#253B80"/>
<path d="M42.1335 3.06784H39.0996C38.9993 3.06788 38.9022 3.10462 38.826 3.17145C38.7497 3.23828 38.6992 3.3308 38.6836 3.43238L37.4567 11.4037C37.451 11.4407 37.4532 11.4784 37.4631 11.5144C37.473 11.5504 37.4904 11.5837 37.5141 11.6122C37.5378 11.6406 37.5672 11.6634 37.6003 11.6791C37.6335 11.6947 37.6695 11.7028 37.706 11.7028H39.2628C39.3331 11.7027 39.401 11.6769 39.4543 11.6301C39.5077 11.5833 39.5429 11.5185 39.5538 11.4474L39.902 9.18784C39.9175 9.08617 39.968 8.99354 40.0443 8.92662C40.1206 8.8597 40.2176 8.8229 40.3181 8.82284H41.2779C43.2765 8.82284 44.4293 7.83193 44.7309 5.86829C44.8671 5.0092 44.7362 4.3342 44.3437 3.86147C43.913 3.34238 43.1488 3.06784 42.1335 3.06784ZM42.4835 5.9792C42.318 7.09466 41.4864 7.09465 40.6818 7.09465H40.2245L40.546 5.01147C40.5553 4.95053 40.5855 4.89497 40.6312 4.85487C40.6769 4.81477 40.7351 4.79276 40.7953 4.79284H41.0051C41.5524 4.79284 42.0696 4.79284 42.3366 5.11284C42.4959 5.30375 42.5442 5.58738 42.4835 5.9792ZM51.2005 5.94329H49.7488C49.6886 5.94312 49.6303 5.96509 49.5846 6.00521C49.5388 6.04533 49.5086 6.10094 49.4995 6.16193L49.4352 6.57829L49.3332 6.42738C49.0187 5.95966 48.3179 5.80329 47.618 5.80329C46.0128 5.80329 44.6422 7.0492 44.3752 8.79693C44.2368 9.66875 44.4333 10.5024 44.9159 11.0837C45.3594 11.6183 45.9919 11.841 46.7455 11.841C48.0389 11.841 48.7561 10.9887 48.7561 10.9887L48.6914 11.4024C48.6856 11.4394 48.6877 11.4773 48.6976 11.5135C48.7076 11.5496 48.725 11.5831 48.7488 11.6116C48.7726 11.6401 48.8022 11.663 48.8354 11.6787C48.8687 11.6944 48.9049 11.7025 48.9415 11.7024H50.2495C50.35 11.7023 50.4471 11.6655 50.5233 11.5986C50.5996 11.5317 50.6501 11.439 50.6656 11.3374L51.4511 6.24238C51.4567 6.20537 51.4544 6.16755 51.4443 6.13154C51.4343 6.09553 51.4168 6.06217 51.393 6.03375C51.3692 6.00534 51.3396 5.98254 51.3064 5.96693C51.2732 5.95131 51.2371 5.94325 51.2005 5.94329ZM49.1757 8.84056C49.0364 9.69102 48.3769 10.2619 47.5368 10.2619C47.1159 10.2619 46.7779 10.1233 46.5614 9.86056C46.3468 9.59965 46.266 9.22829 46.3335 8.81465C46.4652 7.97147 47.1341 7.38193 47.9613 7.38193C48.3738 7.38193 48.7091 7.52238 48.93 7.78738C49.1522 8.05511 49.24 8.42875 49.1757 8.84056ZM52.9131 3.28647L51.668 11.4037C51.6623 11.4407 51.6645 11.4784 51.6744 11.5144C51.6843 11.5504 51.7017 11.5837 51.7254 11.6122C51.7491 11.6406 51.7785 11.6634 51.8116 11.6791C51.8448 11.6947 51.8808 11.7028 51.9173 11.7028H53.169C53.377 11.7028 53.5535 11.5483 53.5855 11.3378L54.8132 3.36693C54.8189 3.32998 54.8167 3.29221 54.8068 3.2562C54.7969 3.2202 54.7796 3.18681 54.7559 3.15835C54.7322 3.12989 54.7028 3.10702 54.6696 3.09132C54.6365 3.07561 54.6004 3.06745 54.5639 3.06738H53.1623C53.1022 3.0676 53.044 3.08977 52.9983 3.12991C52.9527 3.17006 52.9224 3.22556 52.9131 3.28647Z" fill="#179BD7"/>
<path d="M3.22268 13.2517L3.45465 11.7417L2.93792 11.7294H0.470459L2.18522 0.587152C2.19032 0.553108 2.2072 0.522076 2.23276 0.499715C2.25833 0.477354 2.29088 0.465152 2.32449 0.465334H6.48498C7.86618 0.465334 8.81937 0.759879 9.31703 1.34124C9.55034 1.61397 9.69893 1.89897 9.77078 2.21261C9.84618 2.5417 9.84752 2.93488 9.77389 3.41442L9.76856 3.44942V3.7567L10.0019 3.89215C10.18 3.98462 10.3401 4.10971 10.4742 4.26124C10.6738 4.49442 10.8029 4.79079 10.8575 5.14215C10.9138 5.50352 10.8952 5.93352 10.8029 6.42033C10.6965 6.98033 10.5244 7.46806 10.292 7.86715C10.0869 8.22467 9.81116 8.53432 9.48247 8.77624C9.17377 9.00079 8.80695 9.17124 8.39223 9.28033C7.99038 9.38761 7.53219 9.4417 7.02965 9.4417H6.70586C6.47433 9.4417 6.24945 9.52715 6.07292 9.68033C5.89664 9.83515 5.7797 10.0491 5.74292 10.284L5.71852 10.4199L5.30868 13.0812L5.29006 13.179C5.28518 13.2099 5.27675 13.2253 5.26433 13.2358C5.2523 13.2459 5.23729 13.2515 5.22175 13.2517H3.22268Z" fill="#253B80"/>
<path d="M10.2229 3.48486C10.2105 3.56623 10.1963 3.64941 10.1804 3.73486C9.63169 6.62168 7.7546 7.61895 5.35722 7.61895H4.13657C3.84339 7.61895 3.59633 7.83714 3.55064 8.1335L2.92568 12.1953L2.74871 13.3467C2.74166 13.3924 2.74435 13.439 2.7566 13.4835C2.76885 13.528 2.79036 13.5693 2.81966 13.6045C2.84895 13.6396 2.88534 13.6679 2.92631 13.6872C2.96728 13.7066 3.01186 13.7167 3.05697 13.7167H5.22193C5.4783 13.7167 5.69609 13.5258 5.73645 13.2667L5.75774 13.154L6.16536 10.503L6.19153 10.3576C6.23145 10.0976 6.44968 9.90668 6.70605 9.90668H7.02984C9.12738 9.90668 10.7694 9.03395 11.2493 6.5085C11.4498 5.4535 11.346 4.57259 10.8155 3.95304C10.6474 3.76139 10.4466 3.60274 10.2229 3.48486Z" fill="#179BD7"/>
<path d="M9.64888 3.25081C9.47369 3.19887 9.29548 3.15834 9.1153 3.12944C8.75927 3.07337 8.39945 3.04647 8.03925 3.04899H4.77828C4.65418 3.04889 4.53413 3.0943 4.43985 3.17699C4.34557 3.25969 4.28327 3.37423 4.26421 3.4999L3.5705 8.00263L3.55054 8.13399C3.57215 7.99065 3.64311 7.85997 3.75058 7.76559C3.85805 7.67122 3.99493 7.61937 4.13646 7.61944H5.35711C7.75449 7.61944 9.63159 6.62172 10.1803 3.73535C10.1967 3.6499 10.2104 3.56672 10.2228 3.48535C10.0781 3.40755 9.92716 3.34232 9.77175 3.29035C9.731 3.2765 9.69004 3.26332 9.64888 3.25081Z" fill="#222D65"/>
<path d="M4.26423 3.49955C4.28313 3.37384 4.3454 3.25925 4.43973 3.17659C4.53406 3.09394 4.65419 3.0487 4.77831 3.04909H8.03927C8.4256 3.04909 8.78621 3.075 9.11532 3.12955C9.33803 3.16541 9.55766 3.21906 9.77222 3.29C9.93411 3.345 10.0845 3.41 10.2233 3.485C10.3865 2.41818 10.222 1.69182 9.65911 1.03409C9.03859 0.31 7.91863 0 6.48552 0H2.32504C2.0323 0 1.78258 0.218182 1.73734 0.515L0.00439544 11.7718C-0.00367633 11.8241 -0.000605295 11.8775 0.0133973 11.9284C0.0273998 11.9794 0.0520016 12.0266 0.0855104 12.0669C0.119019 12.1071 0.160639 12.1395 0.207509 12.1617C0.254378 12.1839 0.305383 12.1954 0.357016 12.1955H2.92561L3.57052 8.00227L4.26423 3.49955Z" fill="#253B80"/>
</svg>
