<svg width="11" height="13" viewBox="0 0 11 13" fill="none" xmlns="http://www.w3.org/2000/svg">
<path d="M4.26423 3.49955C4.28313 3.37384 4.3454 3.25925 4.43973 3.17659C4.53406 3.09394 4.65419 3.0487 4.77831 3.04909H8.03927C8.4256 3.04909 8.78621 3.075 9.11532 3.12955C9.33803 3.16541 9.55766 3.21906 9.77222 3.29C9.93411 3.345 10.0845 3.41 10.2233 3.485C10.3865 2.41818 10.222 1.69182 9.65911 1.03409C9.03859 0.31 7.91863 0 6.48552 0H2.32504C2.0323 0 1.78258 0.218182 1.73734 0.515L0.00439544 11.7718C-0.00367633 11.8241 -0.000605295 11.8775 0.0133973 11.9284C0.0273998 11.9794 0.0520016 12.0266 0.0855104 12.0669C0.119019 12.1071 0.160639 12.1395 0.207509 12.1617C0.254378 12.1839 0.305383 12.1954 0.357016 12.1955H2.92561L3.57052 8.00227L4.26423 3.49955Z" fill="#253B80"/>
</svg>
